<svg version="1.1" xmlns="http://www.w3.org/2000/svg" xmlns:xlink="http://www.w3.org/1999/xlink" width="564" height="115" viewBox="0 0 564 115"><g id="logo"><path id="Color-Fill-1" d="M213.737,85.176 C213.737,85.176 204.097,85.176 204.097,85.176 C203.441,85.176 202.930,84.519 202.930,83.718 C202.930,53.272 202.930,53.272 202.930,53.272 C202.930,52.759 202.711,52.686 202.563,52.686 C202.340,52.686 202.200,52.836 201.981,53.197 C195.411,65.244 195.411,65.244 195.411,65.244 C194.899,66.120 194.169,66.487 193.220,66.487 C187.380,66.487 187.380,66.487 187.380,66.487 C186.431,66.487 185.701,66.120 185.189,65.244 C178.619,53.197 178.619,53.197 178.619,53.197 C178.400,52.837 178.256,52.686 178.037,52.686 C177.888,52.686 177.665,52.759 177.665,53.272 C177.665,83.718 177.665,83.718 177.665,83.718 C177.665,84.519 177.158,85.176 176.503,85.176 C166.863,85.176 166.863,85.176 166.863,85.176 C166.286,85.176 165.621,84.957 165.621,84.152 C165.621,33.418 165.621,33.418 165.621,33.418 C165.621,31.880 166.723,30.931 168.253,30.931 C175.117,30.931 175.117,30.931 175.117,30.931 C176.647,30.931 177.665,31.665 178.326,32.903 C189.496,53.713 189.496,53.713 189.496,53.713 C189.788,54.297 190.011,54.662 190.296,54.662 C190.588,54.662 190.807,54.297 191.104,53.713 C202.270,32.903 202.270,32.903 202.270,32.903 C202.930,31.666 203.949,30.931 205.483,30.931 C212.343,30.931 212.343,30.931 212.343,30.931 C213.877,30.931 214.974,31.958 214.974,33.489 C214.974,84.152 214.974,84.152 214.974,84.152 C214.975,84.958 214.314,85.176 213.737,85.176 " fill="#2B3990" /><path id="Color-Fill-2" d="M256.870,84.883 C254.317,85.246 250.592,85.829 242.710,85.829 C233.293,85.829 224.969,83.421 224.969,70.138 C224.969,45.901 224.969,45.901 224.969,45.901 C224.969,32.611 233.363,30.281 242.780,30.281 C250.666,30.281 254.317,30.862 256.870,31.225 C257.893,31.371 258.330,31.741 258.330,32.689 C258.330,39.477 258.330,39.477 258.330,39.477 C258.330,40.277 257.679,40.934 256.870,40.934 C242.050,40.934 242.050,40.934 242.050,40.934 C238.622,40.934 237.380,42.104 237.380,45.901 C237.380,52.542 237.380,52.542 237.380,52.542 C237.380,52.542 256.288,52.542 256.288,52.542 C257.088,52.542 257.748,53.197 257.748,54.006 C257.748,60.939 257.748,60.939 257.748,60.939 C257.748,61.743 257.088,62.401 256.288,62.401 C237.380,62.401 237.380,62.401 237.380,62.401 C237.380,62.401 237.380,70.139 237.380,70.139 C237.380,73.936 238.622,75.103 242.050,75.103 C256.870,75.103 256.870,75.103 256.870,75.103 C257.679,75.103 258.330,75.758 258.330,76.563 C258.330,83.348 258.330,83.348 258.330,83.348 C258.330,84.297 257.893,84.738 256.870,84.883 " fill="#2B3990" /><path id="Color-Fill-3" d="M285.190,85.830 C279.131,85.830 272.634,85.247 269.640,84.738 C268.249,84.519 267.519,83.859 267.519,82.180 C267.519,33.928 267.519,33.928 267.519,33.928 C267.519,32.249 268.249,31.591 269.640,31.370 C272.634,30.861 279.131,30.280 285.190,30.280 C299.717,30.280 308.478,37.939 308.478,53.345 C308.478,62.759 308.478,62.759 308.478,62.759 C308.478,78.167 299.717,85.830 285.190,85.830 M285.190,40.865 C283.363,40.865 281.028,40.934 280.005,41.009 C280.005,75.103 280.005,75.103 280.005,75.103 C281.028,75.174 283.363,75.243 285.190,75.243 C291.761,75.243 295.997,72.616 295.997,62.762 C295.997,53.346 295.997,53.346 295.997,53.346 C295.997,43.492 291.761,40.865 285.190,40.865 z" fill="#2B3990" /><path id="Color-Fill-4" d="M331.762,63.565 C329.423,63.565 326.354,63.350 324.457,63.200 C324.457,83.719 324.457,83.719 324.457,83.719 C324.457,84.448 323.945,85.177 323.145,85.177 C319.202,85.177 319.202,85.177 319.202,85.177 C318.472,85.177 317.890,84.519 317.890,83.719 C317.890,32.829 317.890,32.829 317.890,32.829 C317.890,31.810 318.546,31.151 319.639,31.011 C322.778,30.642 327.526,30.421 331.762,30.421 C343.583,30.421 352.200,34.508 352.200,46.264 C352.200,47.213 352.200,47.213 352.200,47.213 C352.200,59.403 343.583,63.565 331.762,63.565 M331.762,36.046 C329.493,36.046 326.210,36.186 324.457,36.339 C324.457,57.724 324.457,57.724 324.457,57.724 C326.136,57.800 329.865,58.019 331.762,58.019 C341.760,58.019 345.555,54.805 345.555,47.212 C345.555,46.263 345.555,46.263 345.555,46.263 C345.555,38.892 341.174,36.046 331.762,36.046 z" fill="#27AAE1" /><path id="Color-Fill-5" d="M379.642,85.686 C368.179,85.686 359.855,78.971 359.855,62.760 C359.855,53.346 359.855,53.346 359.855,53.346 C359.855,37.137 368.179,30.419 379.642,30.419 C391.105,30.419 399.350,37.137 399.350,53.346 C399.350,62.760 399.350,62.760 399.350,62.760 C399.350,78.971 391.105,85.686 379.642,85.686 M379.642,36.408 C371.690,36.408 366.575,41.083 366.575,53.346 C366.575,62.760 366.575,62.760 366.575,62.760 C366.575,75.028 371.611,79.700 379.642,79.700 C387.599,79.700 392.635,75.027 392.635,62.760 C392.635,53.346 392.635,53.346 392.635,53.346 C392.635,41.082 387.668,36.408 379.642,36.408 z" fill="#27AAE1" /><path id="Color-Fill-6" d="M445.555,85.177 C445.555,85.177 440.886,85.177 440.886,85.177 C440.007,85.177 439.566,85.177 438.988,84.228 C425.917,62.472 425.917,62.472 425.917,62.472 L425.266,62.472 C425.266,62.472 424.020,62.472 424.020,62.472 C421.611,62.472 419.858,62.400 415.989,62.251 C415.989,83.719 415.989,83.719 415.989,83.719 C415.989,84.446 415.482,85.177 414.677,85.177 C410.734,85.177 410.734,85.177 410.734,85.177 C410.004,85.177 409.418,84.519 409.418,83.719 C409.418,32.610 409.418,32.610 409.418,32.610 C409.418,31.592 409.855,31.150 411.175,31.010 C414.310,30.641 419.792,30.420 424.020,30.420 C435.552,30.420 444.462,34.293 444.462,46.118 C444.462,46.631 444.462,46.631 444.462,46.631 C444.462,54.806 439.644,59.623 432.999,61.376 C446.281,83.567 446.281,83.567 446.281,83.567 C446.434,83.785 446.505,84.006 446.505,84.227 C446.504,84.737 446.141,85.177 445.555,85.177 M424.020,36.407 C421.755,36.407 417.742,36.407 415.989,36.629 C415.989,56.630 415.989,56.630 415.989,56.630 C419.198,56.703 422.341,56.776 424.020,56.776 C432.999,56.776 437.887,54.516 437.887,46.632 C437.887,46.119 437.887,46.119 437.887,46.119 C437.887,38.816 433.143,36.407 424.020,36.407 z" fill="#27AAE1" /><path id="Color-Fill-7" d="M485.338,36.627 L471.108,36.627 C471.108,36.627 471.108,83.719 471.108,83.719 C471.108,84.446 470.596,85.177 469.788,85.177 C465.770,85.177 465.770,85.177 465.770,85.177 C465.044,85.177 464.463,84.519 464.463,83.719 C464.463,36.627 464.463,36.627 464.463,36.627 C464.463,36.627 450.233,36.627 450.233,36.627 C449.420,36.627 448.759,36.261 448.759,35.458 C448.759,32.250 448.759,32.250 448.759,32.250 C448.759,31.521 449.419,30.933 450.233,30.933 C485.338,30.933 485.338,30.933 485.338,30.933 C486.138,30.933 486.724,31.446 486.724,32.250 C486.724,35.459 486.724,35.459 486.724,35.459 C486.724,36.186 486.138,36.627 485.338,36.627 " fill="#27AAE1" /><path id="Color-Fill-8" d="M525.563,85.176 C525.563,85.176 521.256,85.176 521.256,85.176 C520.596,85.176 520.159,84.660 520.010,84.076 C515.272,67.287 515.272,67.287 515.272,67.287 L496.364,67.287 C496.364,67.287 491.686,84.076 491.686,84.076 C491.546,84.660 490.956,85.176 490.374,85.176 C486.068,85.176 486.068,85.176 486.068,85.176 C485.338,85.176 484.831,84.660 484.831,84.006 C484.831,83.859 484.831,83.638 484.896,83.497 C498.401,35.972 498.401,35.972 498.401,35.972 C499.642,31.520 503.078,30.419 505.845,30.419 C508.551,30.419 511.979,31.445 513.220,35.898 C526.724,83.498 526.724,83.498 526.724,83.498 C526.803,83.639 526.803,83.859 526.803,84.007 C526.804,84.661 526.363,85.176 525.563,85.176 M505.846,36.187 C505.046,36.187 504.609,36.703 504.385,37.506 C497.749,61.521 497.749,61.521 497.749,61.521 L513.881,61.521 C513.881,61.521 507.237,37.506 507.237,37.506 C507.013,36.702 506.577,36.187 505.846,36.187 z" fill="#27AAE1" /><path id="Color-Fill-9" d="M563.069,85.026 C561.175,85.317 555.703,85.686 548.839,85.686 C541.022,85.686 533.293,84.151 533.293,72.105 C533.293,32.396 533.293,32.396 533.293,32.396 C533.293,31.592 533.949,30.932 534.749,30.932 C538.478,30.932 538.478,30.932 538.478,30.932 C539.279,30.932 539.938,31.592 539.938,32.396 C539.938,72.105 539.938,72.105 539.938,72.105 C539.938,77.651 541.175,79.701 548.910,79.701 C563.004,79.701 563.004,79.701 563.004,79.701 C563.512,79.701 563.800,80.064 563.800,80.575 C563.800,84.007 563.800,84.007 563.800,84.007 C563.798,84.447 563.510,84.958 563.069,85.026 " fill="#27AAE1" /><path id="Color-Fill-10" d="M47.710,42.307 L47.710,73.992 L75.118,58.146 L47.710,42.307 z" fill="#2B3990" /><path id="Color-Fill-11" d="M105.973,0.874 C105.973,0.874 7.149,0.874 7.149,0.874 C3.656,0.874 0.827,3.709 0.827,7.198 C0.827,7.316 0.849,7.432 0.858,7.545 C0.858,7.663 0.827,7.777 0.827,7.897 C0.827,77.915 0.827,77.915 0.827,77.915 C0.827,81.800 3.971,84.939 7.844,84.939 C11.722,84.939 14.870,81.799 14.870,77.915 C14.870,13.519 14.870,13.519 14.870,13.519 C14.870,13.519 105.973,13.519 105.973,13.519 C109.462,13.519 112.290,10.691 112.290,7.198 C112.290,3.708 109.462,0.874 105.973,0.874 " fill="#2B3990" /><path id="Color-Fill-12" d="M107.529,30.803 C103.643,30.803 100.503,33.946 100.503,37.824 C100.503,102.225 100.503,102.225 100.503,102.225 C100.503,102.225 9.400,102.225 9.400,102.225 C5.912,102.225 3.083,105.050 3.083,108.545 C3.083,112.034 5.912,114.869 9.400,114.869 C108.228,114.869 108.228,114.869 108.228,114.869 C111.713,114.869 114.550,112.034 114.550,108.545 C114.550,108.425 114.515,108.312 114.515,108.198 C114.515,108.080 114.550,107.960 114.550,107.846 C114.550,37.824 114.550,37.824 114.550,37.824 C114.550,33.946 111.407,30.803 107.529,30.803 z" fill="#00AEEF" /></g></svg>